<?xml version="1.0" encoding="iso-8859-1"?>
<!-- Uploaded to: SVG Repo, www.svgrepo.com, Generator: SVG Repo Mixer Tools -->
<svg height="800px" width="800px" version="1.1" id="Layer_1" xmlns="http://www.w3.org/2000/svg" xmlns:xlink="http://www.w3.org/1999/xlink" 
	 viewBox="0 0 512 512" xml:space="preserve">
<polygon style="fill:#DDB200;" points="334.755,153.241 420.306,173.961 334.755,194.685 "/>
<path style="fill:#FFDA44;" d="M12.743,106.272c-14.028,33.45-5.247,170.417,100.999,220.359L19.406,480.12l0,0
	c36.216-2.106,68.867-22.513,86.627-54.146l0.716-1.274l4.19-0.054c49.941-0.644,98.943-13.654,142.626-37.868l0,0
	c59.456-32.957,88.99-102.039,71.735-167.791l0,0c24.867-24.867,24.867-65.185,0-90.052c-0.518-0.518-1.043-1.025-1.574-1.522
	c-28.43-26.572-74.106-20.018-95.16,12.432c-0.548,0.844-1.034,1.723-1.489,2.622c-4.449,8.768-30.986,59.551-48.769,59.647
	C129.868,202.378,12.743,106.272,12.743,106.272z"/>
<g>
	<path style="fill:#DDB200;" d="M75.258,199.45c4.063-1.06,6.498-5.214,5.438-9.276c-1.06-4.063-5.213-6.499-9.276-5.438
		c-33.961,8.859-52.374,6.241-58.34,4.853c1.11,5.297,2.425,10.682,3.956,16.113c3.132,0.365,6.894,0.618,11.35,0.618
		C39.533,206.32,54.952,204.747,75.258,199.45z"/>
	<path style="fill:#DDB200;" d="M94.389,248.615c4.063-1.06,6.498-5.214,5.438-9.276c-1.06-4.063-5.213-6.499-9.276-5.438
		c-30.331,7.913-51.317,6.87-61.125,5.55c2.484,5.389,5.222,10.733,8.222,15.993c2.036,0.094,4.209,0.154,6.559,0.154
		C56.692,255.597,73.57,254.045,94.389,248.615z"/>
	<path style="fill:#DDB200;" d="M123.863,294.905c4.063-1.06,6.498-5.214,5.438-9.276c-1.059-4.063-5.214-6.499-9.276-5.438
		c-39.56,10.321-59.211,5.075-61.842,4.28c5.157,6.021,11.089,11.861,17.229,17.263c0.448,0.005,0.432,0.01,0.893,0.01
		C87.81,301.743,103.581,300.195,123.863,294.905z"/>
	<circle style="fill:#DDB200;" cx="280.278" cy="173.964" r="15.018"/>
</g>
<circle style="fill:#FF3F62;" cx="460.649" cy="173.964" r="15.018"/>
<g>
	<path style="fill:#A4E276;" d="M504.395,173.085c0,0-76.23,9.47-79.686,141.205C424.71,314.291,494.063,272.663,504.395,173.085z"
		/>
	<path style="fill:#A4E276;" d="M504.395,173.085c0,0-76.23-9.47-79.686-141.205C424.71,31.88,494.063,73.508,504.395,173.085z"/>
</g>
<path style="fill:#FFF5CC;" d="M278.813,273.49c0.719,67.209-43.723,126.433-108.221,144.664
	c29.345-6.191,57.714-16.729,84.135-31.375l0,0c53.055-29.409,82.281-87.583,75.699-146.488L278.813,273.49L278.813,273.49z"/>
<g style="opacity:0.19;">
	<path style="fill:#DDB200;" d="M325.301,222.21c24.867-24.867,24.867-65.185,0-90.052c-0.518-0.518-1.043-1.025-1.574-1.522
		c-5.017-4.689-10.578-8.325-16.438-10.991c20.988,25.018,19.734,62.364-3.792,85.891l0,0
		c17.255,65.752-12.279,134.834-71.735,167.791l0,0c-43.683,24.214-92.685,37.224-142.626,37.868l-4.19,0.054l-0.716,1.274
		c-11.257,20.048-28.499,35.579-48.836,44.808l-15.987,26.011l0,0c36.216-2.106,68.867-22.513,86.627-54.146l0.716-1.274l4.19-0.054
		c49.941-0.644,98.943-13.654,142.626-37.868l0,0C313.021,357.046,342.555,287.964,325.301,222.21L325.301,222.21z"/>
</g>
<path d="M280.274,196.582c-12.473,0-22.62-10.148-22.62-22.621c0-12.473,10.148-22.621,22.62-22.621
	c12.474,0,22.621,10.148,22.621,22.621C302.895,186.434,292.749,196.582,280.274,196.582z M280.274,166.546
	c-4.088,0-7.414,3.326-7.414,7.415s3.326,7.415,7.414,7.415c4.089,0,7.415-3.326,7.415-7.415S284.363,166.546,280.274,166.546z"/>
<path d="M460.645,196.582c-12.473,0-22.62-10.148-22.62-22.621c0-12.473,10.148-22.621,22.62-22.621
	c12.474,0,22.621,10.148,22.621,22.621C483.266,186.434,473.119,196.582,460.645,196.582z M460.645,166.546
	c-4.088,0-7.414,3.326-7.414,7.415s3.326,7.415,7.414,7.415c4.089,0,7.415-3.326,7.415-7.415S464.734,166.546,460.645,166.546z"/>
<path d="M342.271,202.291c-3.364,0-6.439-2.249-7.344-5.654c-1.078-4.058,1.338-8.223,5.397-9.3l50.358-13.375l-50.358-13.371
	c-4.058-1.078-6.475-5.241-5.397-9.3c1.078-4.059,5.24-6.473,9.3-5.397l78.031,20.72c3.332,0.885,5.652,3.901,5.652,7.349
	c0,3.447-2.32,6.464-5.652,7.349l-78.031,20.724C343.573,202.208,342.915,202.291,342.271,202.291z"/>
<path d="M19.405,487.723c-2.663,0-5.147-1.397-6.525-3.701c-1.454-2.432-1.436-5.47,0.048-7.883l89.987-146.413
	c-55.045-29.111-80.416-79.374-92.044-117.226c-13.984-45.521-13.086-90.221-5.14-109.168c0.929-2.215,2.85-3.86,5.18-4.438
	c2.33-0.579,4.798-0.021,6.654,1.5C49.511,126.6,140.521,194.51,178.098,194.51c0.058,0,0.112,0,0.169,0
	c0.749-0.004,7.758-0.691,23.144-23.252c9.173-13.452,16.774-28.072,18.886-32.233c0.634-1.249,1.253-2.335,1.892-3.319
	c11.47-17.678,30.074-29.29,51.039-31.856c20.468-2.504,40.766,4.058,55.692,18.008c0.593,0.555,1.181,1.122,1.761,1.703
	c13.46,13.46,20.875,31.36,20.875,50.4c0,17.574-6.316,34.177-17.877,47.217c15.888,67.916-15.117,138.268-76.425,172.251
	c-44.586,24.715-95.089,38.136-146.063,38.818c-19.4,32.589-53.329,53.254-91.341,55.464
	C19.7,487.719,19.552,487.723,19.405,487.723z M16.966,119.378c-3.393,18.683-2.791,52.094,8.442,88.656
	c11.25,36.617,36.267,85.722,91.568,111.717c1.959,0.92,3.432,2.633,4.051,4.706c0.619,2.073,0.325,4.313-0.808,6.157
	L34.277,470.446c27.425-5.926,51.107-23.224,65.128-48.196l0.715-1.273c1.329-2.366,3.819-3.845,6.532-3.881l4.19-0.054
	c48.519-0.626,96.599-13.39,139.037-36.915c56.463-31.298,84.453-96.768,68.067-159.211c-0.686-2.615,0.066-5.395,1.977-7.306
	c21.863-21.863,21.863-57.436,0-79.3c-0.457-0.458-0.919-0.905-1.387-1.341c-11.632-10.872-27.468-15.986-43.463-14.026
	c-16.488,2.018-31.114,11.144-40.129,25.039c-0.344,0.531-0.701,1.161-1.089,1.925c-2.215,4.364-10.197,19.713-19.882,33.917
	c-13.867,20.336-25.188,29.834-35.625,29.891c-0.076,0-0.154,0-0.231,0c-21.675,0-57.009-16.53-105.028-49.136
	C49.507,144.569,28.416,128.392,16.966,119.378z"/>
<path d="M31.182,205.174c-13.965,0-19.876-3.119-21.412-4.12l8.308-12.736c0,0-0.103-0.084-0.34-0.205
	c0.124,0.064,12.775,6.207,53.215-4.343c4.064-1.059,8.216,1.375,9.276,5.438c1.059,4.063-1.375,8.216-5.438,9.276
	C55.253,203.58,41.16,205.174,31.182,205.174z"/>
<path d="M50.312,254.338c-13.965,0-19.875-3.119-21.41-4.12l8.307-12.736c0,0-0.103-0.084-0.34-0.206
	c0.123,0.064,12.776,6.207,53.215-4.343c4.064-1.059,8.216,1.375,9.276,5.438c1.059,4.063-1.375,8.216-5.438,9.276
	C74.383,252.744,60.291,254.338,50.312,254.338z"/>
<path d="M79.787,300.799c-13.965,0-19.876-3.119-21.412-4.12l8.308-12.736c0,0-0.103-0.084-0.34-0.205
	c0.131,0.067,12.787,6.204,53.215-4.343c4.062-1.059,8.217,1.375,9.276,5.438c1.059,4.063-1.375,8.216-5.438,9.276
	C103.858,299.207,89.765,300.799,79.787,300.799z"/>
<path d="M424.71,321.894c-1.324,0-2.647-0.345-3.832-1.036c-2.397-1.399-3.841-3.992-3.768-6.767
	c1.487-56.695,16.108-98.842,43.455-125.271c21.073-20.365,42.012-23.17,42.894-23.279c2.3-0.286,4.605,0.493,6.259,2.115
	c1.655,1.622,2.481,3.91,2.241,6.214c-5.531,53.306-27.735,90.309-45.388,111.963c-19.249,23.613-37.193,34.523-37.95,34.976
	C427.42,321.532,426.064,321.894,424.71,321.894z M495.351,183.67c-6.648,2.721-15.81,7.745-25,16.851
	c-21.022,20.825-33.761,54.475-37.204,97.924c6.164-5.257,14.012-12.792,22.061-22.739
	C470.1,257.297,488.539,226.857,495.351,183.67z"/>
<path d="M504.395,180.688c-0.311,0-0.624-0.019-0.938-0.058c-0.881-0.109-21.82-2.915-42.894-23.279
	c-27.349-26.429-41.968-68.577-43.455-125.271c-0.073-2.775,1.372-5.368,3.768-6.767c2.399-1.399,5.368-1.38,7.745,0.048
	c0.755,0.453,18.7,11.362,37.95,34.976c17.652,21.655,39.856,58.658,45.388,111.963c0.239,2.304-0.586,4.593-2.241,6.214
	C508.287,179.917,506.374,180.688,504.395,180.688z M433.146,47.727c3.443,43.447,16.182,77.099,37.204,97.924
	c9.19,9.106,18.352,14.13,25,16.851c-6.812-43.187-25.249-73.627-40.143-92.036C447.159,60.517,439.311,52.985,433.146,47.727z"/>
<path d="M167.217,426.373c-3.362,0-6.436-2.247-7.343-5.649c-1.08-4.058,1.333-8.223,5.391-9.303
	c62.385-16.609,105.472-73.294,104.782-137.848c-0.027-2.616,1.291-5.061,3.489-6.476l51.614-33.201
	c3.532-2.272,8.236-1.251,10.508,2.281c2.272,3.532,1.25,8.237-2.281,10.508l-48.136,30.964
	c-1.125,69.74-48.327,130.432-116.064,148.466C168.523,426.288,167.864,426.373,167.217,426.373z"/>
</svg>